<?xml version="1.0" encoding="utf-8"?>
<!-- Generator: Adobe Illustrator 16.0.0, SVG Export Plug-In . SVG Version: 6.00 Build 0)  -->
<!DOCTYPE svg PUBLIC "-//W3C//DTD SVG 1.1//EN" "http://www.w3.org/Graphics/SVG/1.1/DTD/svg11.dtd">
<svg version="1.1" id="Capa_1" xmlns="http://www.w3.org/2000/svg" xmlns:xlink="http://www.w3.org/1999/xlink" x="0px" y="0px"
	 width="512px" height="512px" viewBox="0 0 512 512" enable-background="new 0 0 512 512" xml:space="preserve">
<path id="pdf-file-6-icon" fill="#FFFFFF" d="M284.027,50h-205v378.472h40V90h205L284.027,50z M326.107,163.669v66.75h66.865V422
	H193.582V163.669H326.107z M351.107,123.669H153.583V462h279.39V205.419L351.107,123.669z M365.366,300.122h-36.984v51.86h12.772
	v-20.701h20.982v-10.316h-20.982v-9.824h24.212V300.122z M313.273,306.56c-4.164-4.21-9.996-6.438-16.871-6.438h-22.49v51.86h22.49
	c7.564,0,13.537-2.536,17.76-7.538C321.975,335.186,322.42,315.814,313.273,306.56z M306.247,333.542
	c-1.804,4.926-5.375,7.425-10.616,7.425h-8.947v-29.826h6.984c6.646,0,11.27,2.437,12.863,9.048
	C307.439,323.95,307.634,329.743,306.247,333.542z M265.329,310.831c-2.241-6.806-8.519-10.709-17.221-10.709h-23.476v51.86h12.773
	v-17.965h10.702c8.723,0,15-3.917,17.221-10.745C266.659,319.181,266.659,314.877,265.329,310.831z M253.198,320.511
	c-1.536,2.806-4.806,3.191-8.107,3.191h-7.685v-13.264h7.685c3.302,0,6.571,0.387,8.108,3.192
	C254.146,315.367,254.146,318.775,253.198,320.511z"/>
</svg>
